{"title":"South Solitary 2010 720p BRRip H264 Feel-Free","uid":6013966,"size":1728680657,"categoryP":"video","categoryS":"hd___movies","magnet":"?xt=urn:btih:6a069b6d085fc0f8cf6c0f8e847a7c419cb8453a&amp;dn=South+Solitary+2010+720p+BRRip+H264+Feel-Free&amp;tr=udp%3A%2F%2Ftracker.openbittorrent.com%3A80&amp;tr=udp%3A%2F%2Fopen.demonii.com%3A1337&amp;tr=udp%3A%2F%2Ftracker.coppersurfer.tk%3A6969&amp;tr=udp%3A%2F%2Fexodus.desync.com%3A6969","seeders":0,"leechers":2,"uploader":"hiest","files":8,"time":1291555710,"description":"Genre:Drama\nLanguage:English\nIMDb:http://www.imdb.com/title/tt1587278/\nSource:720p.BluRay.x264-aAF\n\n\nFormat : MPEG-4\nFormat profile : Base Media\nCodec ID : mp42\nFile size : 1.61 GiB\nDuration : 2h 0mn\nOverall bit rate : 1 908 Kbps\n\n\nVideo\nCodec ID : avc1\nCodec ID/Info : Advanced Video Coding\nDuration : 2h 0mn\nBit rate mode : Variable\nBit rate : 1 426 Kbps\nWidth : 1 280 pixels\nHeight : 720 pixels\nDisplay aspect ratio : 16:9\nFrame rate mode : Constant\nFrame rate : 23.976 fps\nColor space : YUV\nChroma subsampling : 4:2:0\nBit depth : 8 bits\nScan type : Progressive\nBits/(Pixel*Frame) : 0.065\nStream size : 1.20 GiB (75%)\nLanguage : English\n\nAudio\nID : 2\nFormat : AAC\nFormat/Info : Advanced Audio Codec\nFormat version : Version 4\nFormat profile : LC\nCodec ID : 40\nDuration : 2h 0mn\nBit rate mode : Constant\nBit rate : 480 Kbps\nChannel(s) : 6 channels\nChannel positions : Front: L C R, Side: L R, LFE\nSampling rate : 48.0 KHz\nStream size : 411 MiB (25%)\nLanguage : English\n\n\nPlot:\nMeredith is a 35 year-old unmarried woman who arrives at a remote lighthouse island 1928 with her uncle the new head keeper\n\n\n\n\n\n\n\n\n\n================================== &lt;a href=&quot;\nhttp://thepiratebay.se/user/hiest&quot; rel=&quot;nofollow&quot; target=&quot;_NEW&quot;&gt;\nhttp://thepiratebay.se/user/hiest&lt;/a&gt;\n==================================","torrent":{"xt":"urn:btih:6a069b6d085fc0f8cf6c0f8e847a7c419cb8453a","amp;dn":"South+Solitary+2010+720p+BRRip+H264+Feel-Free","amp;tr":["udp%3A%2F%2Ftracker.openbittorrent.com%3A80","udp%3A%2F%2Fopen.demonii.com%3A1337","udp%3A%2F%2Ftracker.coppersurfer.tk%3A6969","udp%3A%2F%2Fexodus.desync.com%3A6969"],"infoHash":"6a069b6d085fc0f8cf6c0f8e847a7c419cb8453a","infoHashBuffer":{"type":"Buffer","data":[106,6,155,109,8,95,192,248,207,108,15,142,132,122,124,65,156,184,69,58]},"announce":[],"urlList":[]}}